{"glyphs":{"0":{"ha":833,"x_min":0,"x_max":0,"o":"m 310 972 l 286 833 l 703 833 l 726 972 z m 188 278 l 326 278 l 351 417 l 213 417 l 286 833 l 147 833 l 25 139 l 164 139 z m 842 833 l 703 833 l 678 694 l 539 694 l 515 556 l 654 556 l 581 139 l 719 139 z m 376 556 l 351 417 l 490 417 l 515 556 z m 556 0 l 581 139 l 164 139 l 139 0 z "},"1":{"ha":833,"x_min":0,"x_max":0,"o":"m 694 0 l 719 139 l 442 139 l 588 972 l 449 972 l 425 833 l 286 833 l 261 694 l 400 694 l 303 139 l 25 139 l 0 0 z "},"2":{"ha":833,"x_min":0,"x_max":0,"o":"m 703 833 l 726 972 l 310 972 l 286 833 z m 147 833 l 122 694 l 261 694 l 286 833 z m 842 833 l 703 833 l 654 556 l 793 556 z m 654 556 l 376 556 l 351 417 l 629 417 z m 213 417 l 188 278 l 326 278 l 351 417 z m 188 278 l 49 278 l 0 0 l 694 0 l 743 278 l 604 278 l 581 139 l 164 139 z "},"3":{"ha":833,"x_min":0,"x_max":0,"o":"m 703 833 l 726 972 l 310 972 l 286 833 z m 147 833 l 122 694 l 261 694 l 286 833 z m 842 833 l 703 833 l 654 556 l 793 556 z m 654 556 l 376 556 l 351 417 l 629 417 z m 629 417 l 581 139 l 719 139 l 768 417 z m 188 278 l 49 278 l 25 139 l 164 139 z m 556 0 l 581 139 l 164 139 l 139 0 z "},"4":{"ha":833,"x_min":0,"x_max":0,"o":"m 694 0 l 865 972 l 588 972 l 564 833 l 703 833 l 629 417 l 213 417 l 238 556 l 99 556 l 49 278 l 604 278 l 556 0 z m 539 694 l 564 833 l 425 833 l 400 694 z m 376 556 l 400 694 l 261 694 l 238 556 z "},"5":{"ha":833,"x_min":0,"x_max":0,"o":"m 261 694 l 286 833 l 842 833 l 865 972 l 171 972 l 99 556 l 654 556 l 678 694 z m 793 556 l 654 556 l 581 139 l 719 139 z m 188 278 l 49 278 l 25 139 l 164 139 z m 556 0 l 581 139 l 164 139 l 139 0 z "},"6":{"ha":833,"x_min":0,"x_max":0,"o":"m 425 833 l 703 833 l 726 972 l 449 972 z m 400 694 l 425 833 l 286 833 l 261 694 z m 164 139 l 213 417 l 629 417 l 654 556 l 238 556 l 261 694 l 122 694 l 25 139 z m 768 417 l 629 417 l 581 139 l 719 139 z m 556 0 l 581 139 l 164 139 l 139 0 z "},"7":{"ha":833,"x_min":0,"x_max":0,"o":"m 793 556 l 865 972 l 171 972 l 122 694 l 261 694 l 286 833 l 703 833 l 654 556 z m 515 556 l 490 417 l 629 417 l 654 556 z m 490 417 l 351 417 l 278 0 l 417 0 z "},"8":{"ha":833,"x_min":0,"x_max":0,"o":"m 310 972 l 286 833 l 703 833 l 726 972 z m 238 556 l 286 833 l 147 833 l 99 556 z m 842 833 l 703 833 l 654 556 l 793 556 z m 629 417 l 654 556 l 238 556 l 213 417 z m 164 139 l 213 417 l 74 417 l 25 139 z m 629 417 l 581 139 l 719 139 l 768 417 z m 556 0 l 581 139 l 164 139 l 139 0 z "},"9":{"ha":833,"x_min":0,"x_max":0,"o":"m 310 972 l 286 833 l 703 833 l 726 972 z m 238 556 l 286 833 l 147 833 l 99 556 z m 842 833 l 703 833 l 654 556 l 238 556 l 213 417 l 629 417 l 604 278 l 743 278 z m 465 278 l 442 139 l 581 139 l 604 278 z m 442 139 l 164 139 l 139 0 l 417 0 z "},"A":{"ha":833,"x_min":0,"x_max":0,"o":"m 310 972 l 286 833 l 703 833 l 726 972 z m 842 833 l 703 833 l 678 694 l 261 694 l 286 833 l 147 833 l 0 0 l 139 0 l 238 556 l 654 556 l 556 0 l 694 0 z "},"Ä":{"ha":833,"x_min":0,"x_max":0,"o":"m 310 972 l 171 972 l 147 833 l 286 833 z m 842 833 l 865 972 l 726 972 l 703 833 z m 678 694 l 703 833 l 286 833 l 261 694 z m 678 694 l 654 556 l 238 556 l 261 694 l 122 694 l 0 0 l 139 0 l 213 417 l 629 417 l 556 0 l 694 0 l 817 694 z "},"Å":{"ha":833,"x_min":0,"x_max":0,"o":"m 564 833 l 588 972 l 449 972 l 425 833 z m 261 694 l 238 556 l 654 556 l 678 694 z m 793 556 l 654 556 l 629 417 l 213 417 l 238 556 l 99 556 l 0 0 l 139 0 l 188 278 l 604 278 l 556 0 l 694 0 z "},"Æ":{"ha":833,"x_min":0,"x_max":0,"o":"m 539 694 l 564 833 l 842 833 l 865 972 l 310 972 l 286 833 l 425 833 l 400 694 l 261 694 l 286 833 l 147 833 l 0 0 l 139 0 l 238 556 l 376 556 l 278 0 l 694 0 l 719 139 l 442 139 l 515 556 l 654 556 l 678 694 z "},"B":{"ha":833,"x_min":0,"x_max":0,"o":"m 654 556 l 678 694 l 261 694 l 286 833 l 703 833 l 726 972 l 171 972 l 0 0 l 556 0 l 581 139 l 164 139 l 238 556 z m 678 694 l 817 694 l 842 833 l 703 833 z m 793 556 l 654 556 l 581 139 l 719 139 z "},"C":{"ha":833,"x_min":0,"x_max":0,"o":"m 703 833 l 726 972 l 310 972 l 286 833 z m 286 833 l 147 833 l 25 139 l 164 139 z m 678 694 l 817 694 l 842 833 l 703 833 z m 719 139 l 743 278 l 604 278 l 581 139 z m 164 139 l 139 0 l 556 0 l 581 139 z "},"Ç":{"ha":833,"x_min":0,"x_max":0,"o":"m 703 833 l 726 972 l 310 972 l 286 833 z m 286 833 l 147 833 l 25 139 l 164 139 z m 678 694 l 817 694 l 842 833 l 703 833 z m 719 139 l 743 278 l 604 278 l 581 139 z m 164 139 l 139 0 l 556 0 l 581 139 z m 531 -139 l 669 -139 l 694 0 l 556 0 z m 531 -139 l 253 -139 l 229 -278 l 507 -278 z "},"D":{"ha":833,"x_min":0,"x_max":0,"o":"m 556 0 l 581 139 l 164 139 l 286 833 l 703 833 l 726 972 l 171 972 l 0 0 z m 842 833 l 703 833 l 581 139 l 719 139 z "},"E":{"ha":833,"x_min":0,"x_max":0,"o":"m 261 694 l 286 833 l 842 833 l 865 972 l 171 972 l 0 0 l 694 0 l 719 139 l 164 139 l 238 556 l 515 556 l 539 694 z "},"F":{"ha":833,"x_min":0,"x_max":0,"o":"m 842 833 l 865 972 l 171 972 l 0 0 l 139 0 l 238 556 l 515 556 l 539 694 l 261 694 l 286 833 z "},"G":{"ha":833,"x_min":0,"x_max":0,"o":"m 310 972 l 286 833 l 842 833 l 865 972 z m 25 139 l 164 139 l 286 833 l 147 833 z m 581 139 l 719 139 l 817 694 l 539 694 l 515 556 l 654 556 z m 164 139 l 139 0 l 556 0 l 581 139 z "},"H":{"ha":833,"x_min":0,"x_max":0,"o":"m 865 972 l 726 972 l 678 694 l 261 694 l 310 972 l 171 972 l 0 0 l 139 0 l 238 556 l 654 556 l 556 0 l 694 0 z "},"I":{"ha":556,"x_min":0,"x_max":0,"o":"m 442 139 l 303 139 l 425 833 l 564 833 l 588 972 l 171 972 l 147 833 l 286 833 l 164 139 l 25 139 l 0 0 l 417 0 z "},"J":{"ha":833,"x_min":0,"x_max":0,"o":"m 865 972 l 726 972 l 581 139 l 719 139 z m 188 278 l 49 278 l 25 139 l 164 139 z m 556 0 l 581 139 l 164 139 l 139 0 z "},"K":{"ha":833,"x_min":0,"x_max":0,"o":"m 515 556 l 539 694 l 261 694 l 310 972 l 171 972 l 0 0 l 139 0 l 238 556 z m 842 833 l 865 972 l 726 972 l 703 833 z m 678 694 l 703 833 l 564 833 l 539 694 z m 490 417 l 629 417 l 654 556 l 515 556 z m 768 417 l 629 417 l 556 0 l 694 0 z "},"L":{"ha":833,"x_min":0,"x_max":0,"o":"m 694 0 l 719 139 l 164 139 l 310 972 l 171 972 l 0 0 z "},"M":{"ha":833,"x_min":0,"x_max":0,"o":"m 425 833 l 286 833 l 310 972 l 171 972 l 0 0 l 139 0 l 261 694 l 400 694 z m 865 972 l 726 972 l 703 833 l 564 833 l 539 694 l 678 694 l 556 0 l 694 0 z m 400 694 l 376 556 l 515 556 l 539 694 z "},"N":{"ha":833,"x_min":0,"x_max":0,"o":"m 425 833 l 286 833 l 310 972 l 171 972 l 0 0 l 139 0 l 261 694 l 400 694 z m 865 972 l 726 972 l 654 556 l 515 556 l 490 417 l 629 417 l 556 0 l 694 0 z m 539 694 l 400 694 l 376 556 l 515 556 z "},"Ñ":{"ha":833,"x_min":0,"x_max":0,"o":"m 842 833 l 865 972 l 171 972 l 147 833 z m 376 556 l 238 556 l 261 694 l 122 694 l 0 0 l 139 0 l 213 417 l 351 417 z m 817 694 l 678 694 l 604 278 l 465 278 l 442 139 l 581 139 l 556 0 l 694 0 z m 490 417 l 351 417 l 326 278 l 465 278 z "},"O":{"ha":833,"x_min":0,"x_max":0,"o":"m 310 972 l 286 833 l 703 833 l 726 972 z m 25 139 l 164 139 l 286 833 l 147 833 z m 842 833 l 703 833 l 581 139 l 719 139 z m 556 0 l 581 139 l 164 139 l 139 0 z "},"Ø":{"ha":833,"x_min":0,"x_max":0,"o":"m 310 972 l 286 833 l 703 833 l 726 972 z m 188 278 l 326 278 l 351 417 l 213 417 l 286 833 l 147 833 l 25 139 l 164 139 z m 842 833 l 703 833 l 678 694 l 539 694 l 515 556 l 654 556 l 581 139 l 719 139 z m 376 556 l 351 417 l 490 417 l 515 556 z m 556 0 l 581 139 l 164 139 l 139 0 z "},"P":{"ha":833,"x_min":0,"x_max":0,"o":"m 654 556 l 678 694 l 261 694 l 286 833 l 703 833 l 726 972 l 171 972 l 0 0 l 139 0 l 238 556 z m 842 833 l 703 833 l 678 694 l 817 694 z "},"Q":{"ha":833,"x_min":0,"x_max":0,"o":"m 310 972 l 286 833 l 703 833 l 726 972 z m 25 139 l 164 139 l 286 833 l 147 833 z m 842 833 l 703 833 l 604 278 l 743 278 z m 465 278 l 442 139 l 581 139 l 604 278 z m 442 139 l 164 139 l 139 0 l 417 0 z m 556 0 l 694 0 l 719 139 l 581 139 z "},"R":{"ha":833,"x_min":0,"x_max":0,"o":"m 654 556 l 678 694 l 261 694 l 286 833 l 703 833 l 726 972 l 171 972 l 0 0 l 139 0 l 238 556 z m 678 694 l 817 694 l 842 833 l 703 833 z m 793 556 l 654 556 l 556 0 l 694 0 z "},"S":{"ha":833,"x_min":0,"x_max":0,"o":"m 310 972 l 286 833 l 842 833 l 865 972 z m 286 833 l 147 833 l 122 694 l 261 694 z m 261 694 l 238 556 l 654 556 l 678 694 z m 793 556 l 654 556 l 581 139 l 719 139 z m 188 278 l 49 278 l 25 139 l 164 139 z m 556 0 l 581 139 l 164 139 l 139 0 z "},"T":{"ha":833,"x_min":0,"x_max":0,"o":"m 842 833 l 865 972 l 171 972 l 147 833 l 425 833 l 278 0 l 417 0 l 564 833 z "},"U":{"ha":833,"x_min":0,"x_max":0,"o":"m 25 139 l 164 139 l 310 972 l 171 972 z m 865 972 l 726 972 l 581 139 l 719 139 z m 556 0 l 581 139 l 164 139 l 139 0 z "},"Ü":{"ha":833,"x_min":0,"x_max":0,"o":"m 286 833 l 310 972 l 171 972 l 147 833 z m 865 972 l 726 972 l 703 833 l 842 833 z m 25 139 l 164 139 l 261 694 l 122 694 z m 817 694 l 678 694 l 581 139 l 719 139 z m 556 0 l 581 139 l 164 139 l 139 0 z "},"V":{"ha":833,"x_min":0,"x_max":0,"o":"m 74 417 l 213 417 l 310 972 l 171 972 z m 865 972 l 726 972 l 629 417 l 768 417 z m 303 139 l 351 417 l 213 417 l 164 139 z m 629 417 l 490 417 l 442 139 l 581 139 z m 303 139 l 278 0 l 417 0 l 442 139 z "},"W":{"ha":833,"x_min":0,"x_max":0,"o":"m 326 278 l 188 278 l 310 972 l 171 972 l 0 0 l 139 0 l 164 139 l 303 139 z m 865 972 l 726 972 l 604 278 l 465 278 l 442 139 l 581 139 l 556 0 l 694 0 z m 490 417 l 351 417 l 326 278 l 465 278 z "},"X":{"ha":833,"x_min":0,"x_max":0,"o":"m 310 972 l 171 972 l 147 833 l 286 833 z m 842 833 l 865 972 l 726 972 l 703 833 z m 425 833 l 286 833 l 261 694 l 400 694 z m 678 694 l 703 833 l 564 833 l 539 694 z m 539 694 l 400 694 l 376 556 l 515 556 z m 238 556 l 213 417 l 351 417 l 376 556 z m 490 417 l 629 417 l 654 556 l 515 556 z m 213 417 l 74 417 l 0 0 l 139 0 z m 768 417 l 629 417 l 556 0 l 694 0 z "},"Y":{"ha":833,"x_min":0,"x_max":0,"o":"m 310 972 l 171 972 l 147 833 l 286 833 z m 865 972 l 726 972 l 703 833 l 842 833 z m 425 833 l 286 833 l 261 694 l 400 694 z m 564 833 l 539 694 l 678 694 l 703 833 z m 539 694 l 400 694 l 278 0 l 417 0 z "},"Z":{"ha":833,"x_min":0,"x_max":0,"o":"m 817 694 l 865 972 l 171 972 l 147 833 l 703 833 l 678 694 z m 539 694 l 515 556 l 654 556 l 678 694 z m 376 556 l 351 417 l 490 417 l 515 556 z m 213 417 l 188 278 l 326 278 l 351 417 z m 188 278 l 49 278 l 0 0 l 694 0 l 719 139 l 164 139 z "},"a":{"ha":833,"x_min":0,"x_max":0,"o":"m 654 556 l 678 694 l 261 694 l 238 556 z m 793 556 l 654 556 l 629 417 l 213 417 l 188 278 l 604 278 l 581 139 l 164 139 l 139 0 l 694 0 z m 188 278 l 49 278 l 25 139 l 164 139 z "},"á":{"ha":833,"x_min":0,"x_max":0,"o":"m 842 833 l 865 972 l 588 972 l 564 833 z m 654 556 l 678 694 l 261 694 l 238 556 z m 654 556 l 629 417 l 213 417 l 188 278 l 604 278 l 581 139 l 164 139 l 139 0 l 694 0 l 793 556 z m 188 278 l 49 278 l 25 139 l 164 139 z "},"â":{"ha":833,"x_min":0,"x_max":0,"o":"m 310 972 l 286 833 l 703 833 l 726 972 z m 286 833 l 147 833 l 122 694 l 261 694 z m 678 694 l 817 694 l 842 833 l 703 833 z m 654 556 l 678 694 l 261 694 l 238 556 z m 654 556 l 629 417 l 213 417 l 188 278 l 604 278 l 581 139 l 164 139 l 139 0 l 694 0 l 793 556 z m 188 278 l 49 278 l 25 139 l 164 139 z "},"à":{"ha":833,"x_min":0,"x_max":0,"o":"m 147 833 l 425 833 l 449 972 l 171 972 z m 654 556 l 678 694 l 261 694 l 238 556 z m 793 556 l 654 556 l 629 417 l 213 417 l 188 278 l 604 278 l 581 139 l 164 139 l 139 0 l 694 0 z m 188 278 l 49 278 l 25 139 l 164 139 z "},"å":{"ha":833,"x_min":0,"x_max":0,"o":"m 564 833 l 588 972 l 449 972 l 425 833 z m 654 556 l 678 694 l 261 694 l 238 556 z m 793 556 l 654 556 l 629 417 l 213 417 l 188 278 l 604 278 l 581 139 l 164 139 l 139 0 l 694 0 z m 188 278 l 49 278 l 25 139 l 164 139 z "},"æ":{"ha":833,"x_min":0,"x_max":0,"o":"m 400 694 l 261 694 l 238 556 l 376 556 z m 654 556 l 678 694 l 539 694 l 515 556 z m 465 278 l 604 278 l 629 417 l 490 417 l 515 556 l 376 556 l 351 417 l 213 417 l 188 278 l 326 278 l 303 139 l 164 139 l 139 0 l 694 0 l 719 139 l 442 139 z m 629 417 l 768 417 l 793 556 l 654 556 z m 188 278 l 49 278 l 25 139 l 164 139 z "},"b":{"ha":833,"x_min":0,"x_max":0,"o":"m 556 0 l 581 139 l 164 139 l 213 417 l 351 417 l 376 556 l 238 556 l 310 972 l 171 972 l 0 0 z m 376 556 l 654 556 l 678 694 l 400 694 z m 793 556 l 654 556 l 581 139 l 719 139 z "},"c":{"ha":833,"x_min":0,"x_max":0,"o":"m 654 556 l 678 694 l 261 694 l 238 556 z m 238 556 l 99 556 l 25 139 l 164 139 z m 629 417 l 768 417 l 793 556 l 654 556 z m 719 139 l 743 278 l 604 278 l 581 139 z m 164 139 l 139 0 l 556 0 l 581 139 z "},"ç":{"ha":833,"x_min":0,"x_max":0,"o":"m 654 556 l 678 694 l 261 694 l 238 556 z m 238 556 l 99 556 l 25 139 l 164 139 z m 629 417 l 768 417 l 793 556 l 654 556 z m 719 139 l 743 278 l 604 278 l 581 139 z m 164 139 l 139 0 l 556 0 l 581 139 z m 531 -139 l 669 -139 l 694 0 l 556 0 z m 531 -139 l 253 -139 l 229 -278 l 507 -278 z "},"d":{"ha":833,"x_min":0,"x_max":0,"o":"m 865 972 l 726 972 l 654 556 l 515 556 l 490 417 l 629 417 l 581 139 l 164 139 l 139 0 l 694 0 z m 238 556 l 515 556 l 539 694 l 261 694 z m 25 139 l 164 139 l 238 556 l 99 556 z "},"e":{"ha":833,"x_min":0,"x_max":0,"o":"m 261 694 l 238 556 l 654 556 l 678 694 z m 793 556 l 654 556 l 629 417 l 213 417 l 238 556 l 99 556 l 25 139 l 164 139 l 188 278 l 743 278 z m 164 139 l 139 0 l 694 0 l 719 139 z "},"ê":{"ha":833,"x_min":0,"x_max":0,"o":"m 310 972 l 286 833 l 703 833 l 726 972 z m 286 833 l 147 833 l 122 694 l 261 694 z m 678 694 l 817 694 l 842 833 l 703 833 z m 654 556 l 678 694 l 261 694 l 238 556 z m 654 556 l 629 417 l 213 417 l 238 556 l 99 556 l 25 139 l 164 139 l 188 278 l 743 278 l 793 556 z m 164 139 l 139 0 l 694 0 l 719 139 z "},"ë":{"ha":833,"x_min":0,"x_max":0,"o":"m 425 833 l 449 972 l 310 972 l 286 833 z m 703 833 l 726 972 l 588 972 l 564 833 z m 261 694 l 238 556 l 654 556 l 678 694 z m 793 556 l 654 556 l 629 417 l 213 417 l 238 556 l 99 556 l 25 139 l 164 139 l 188 278 l 743 278 z m 164 139 l 139 0 l 694 0 l 719 139 z "},"f":{"ha":694,"x_min":0,"x_max":0,"o":"m 425 833 l 703 833 l 726 972 l 449 972 z m 425 833 l 286 833 l 261 694 l 122 694 l 99 556 l 238 556 l 139 0 l 278 0 l 376 556 l 654 556 l 678 694 l 400 694 z "},"g":{"ha":833,"x_min":0,"x_max":0,"o":"m 694 0 l 817 694 l 261 694 l 238 556 l 654 556 l 604 278 l 188 278 l 164 139 l 581 139 l 556 0 z m 188 278 l 238 556 l 99 556 l 49 278 z m 531 -139 l 556 0 l 0 0 l -25 -139 z "},"h":{"ha":833,"x_min":0,"x_max":0,"o":"m 376 556 l 238 556 l 310 972 l 171 972 l 0 0 l 139 0 l 213 417 l 351 417 z m 654 556 l 678 694 l 400 694 l 376 556 z m 793 556 l 654 556 l 556 0 l 694 0 z "},"i":{"ha":278,"x_min":0,"x_max":0,"o":"m 310 972 l 171 972 l 147 833 l 286 833 z m 261 694 l 122 694 l 0 0 l 139 0 z "},"í":{"ha":417,"x_min":0,"x_max":0,"o":"m 425 833 l 449 972 l 171 972 l 147 833 z m 261 694 l 122 694 l 0 0 l 139 0 z "},"î":{"ha":556,"x_min":0,"x_max":0,"o":"m 286 833 l 310 972 l 171 972 l 147 833 z m 588 972 l 449 972 l 425 833 l 564 833 z m 400 694 l 261 694 l 139 0 l 278 0 z "},"j":{"ha":833,"x_min":0,"x_max":0,"o":"m 865 972 l 726 972 l 703 833 l 842 833 z m 817 694 l 678 694 l 556 0 l 694 0 z m 164 139 l 25 139 l 0 0 l 139 0 z m 531 -139 l 556 0 l 139 0 l 114 -139 z "},"k":{"ha":694,"x_min":0,"x_max":0,"o":"m 351 417 l 213 417 l 310 972 l 171 972 l 0 0 l 139 0 l 188 278 l 326 278 z m 654 556 l 678 694 l 539 694 l 515 556 z m 490 417 l 515 556 l 376 556 l 351 417 z m 303 139 l 442 139 l 465 278 l 326 278 z m 417 0 l 556 0 l 581 139 l 442 139 z "},"l":{"ha":417,"x_min":0,"x_max":0,"o":"m 25 139 l 164 139 l 310 972 l 171 972 z m 303 139 l 164 139 l 139 0 l 278 0 z "},"m":{"ha":833,"x_min":0,"x_max":0,"o":"m 376 556 l 400 694 l 122 694 l 0 0 l 139 0 l 238 556 z m 678 694 l 539 694 l 515 556 l 654 556 z m 515 556 l 376 556 l 326 278 l 465 278 z m 793 556 l 654 556 l 556 0 l 694 0 z "},"n":{"ha":833,"x_min":0,"x_max":0,"o":"m 654 556 l 678 694 l 122 694 l 0 0 l 139 0 l 238 556 z m 793 556 l 654 556 l 556 0 l 694 0 z "},"ñ":{"ha":833,"x_min":0,"x_max":0,"o":"m 842 833 l 865 972 l 171 972 l 147 833 z m 654 556 l 678 694 l 122 694 l 0 0 l 139 0 l 238 556 z m 793 556 l 654 556 l 556 0 l 694 0 z "},"o":{"ha":833,"x_min":0,"x_max":0,"o":"m 261 694 l 238 556 l 654 556 l 678 694 z m 25 139 l 164 139 l 238 556 l 99 556 z m 793 556 l 654 556 l 581 139 l 719 139 z m 556 0 l 581 139 l 164 139 l 139 0 z "},"ó":{"ha":833,"x_min":0,"x_max":0,"o":"m 842 833 l 865 972 l 588 972 l 564 833 z m 261 694 l 238 556 l 654 556 l 678 694 z m 25 139 l 164 139 l 238 556 l 99 556 z m 793 556 l 654 556 l 581 139 l 719 139 z m 556 0 l 581 139 l 164 139 l 139 0 z "},"ô":{"ha":833,"x_min":0,"x_max":0,"o":"m 310 972 l 286 833 l 703 833 l 726 972 z m 286 833 l 147 833 l 122 694 l 261 694 z m 678 694 l 817 694 l 842 833 l 703 833 z m 654 556 l 678 694 l 261 694 l 238 556 z m 25 139 l 164 139 l 238 556 l 99 556 z m 793 556 l 654 556 l 581 139 l 719 139 z m 556 0 l 581 139 l 164 139 l 139 0 z "},"ö":{"ha":833,"x_min":0,"x_max":0,"o":"m 425 833 l 449 972 l 310 972 l 286 833 z m 703 833 l 726 972 l 588 972 l 564 833 z m 261 694 l 238 556 l 654 556 l 678 694 z m 25 139 l 164 139 l 238 556 l 99 556 z m 793 556 l 654 556 l 581 139 l 719 139 z m 556 0 l 581 139 l 164 139 l 139 0 z "},"ò":{"ha":833,"x_min":0,"x_max":0,"o":"m 147 833 l 425 833 l 449 972 l 171 972 z m 261 694 l 238 556 l 654 556 l 678 694 z m 25 139 l 164 139 l 238 556 l 99 556 z m 793 556 l 654 556 l 581 139 l 719 139 z m 556 0 l 581 139 l 164 139 l 139 0 z "},"ø":{"ha":833,"x_min":0,"x_max":0,"o":"m 793 556 l 654 556 l 678 694 l 261 694 l 238 556 l 515 556 l 490 417 l 629 417 l 581 139 l 719 139 z m 581 139 l 303 139 l 326 278 l 188 278 l 238 556 l 99 556 l 25 139 l 164 139 l 139 0 l 278 0 l 253 -139 l 392 -139 l 417 0 l 556 0 z m 351 417 l 326 278 l 465 278 l 490 417 z "},"p":{"ha":833,"x_min":0,"x_max":0,"o":"m 581 139 l 604 278 l 188 278 l 213 417 l 351 417 l 376 556 l 238 556 l 261 694 l 122 694 l -25 -139 l 114 -139 l 164 139 z m 376 556 l 654 556 l 678 694 l 400 694 z m 793 556 l 654 556 l 604 278 l 743 278 z "},"q":{"ha":833,"x_min":0,"x_max":0,"o":"m 817 694 l 678 694 l 654 556 l 515 556 l 490 417 l 629 417 l 604 278 l 188 278 l 164 139 l 581 139 l 531 -139 l 669 -139 z m 238 556 l 515 556 l 539 694 l 261 694 z m 188 278 l 238 556 l 99 556 l 49 278 z "},"r":{"ha":833,"x_min":0,"x_max":0,"o":"m 238 556 l 261 694 l 122 694 l 0 0 l 139 0 l 213 417 l 351 417 l 376 556 z m 654 556 l 678 694 l 400 694 l 376 556 z m 793 556 l 654 556 l 629 417 l 768 417 z "},"s":{"ha":833,"x_min":0,"x_max":0,"o":"m 261 694 l 238 556 l 793 556 l 817 694 z m 238 556 l 99 556 l 74 417 l 213 417 z m 213 417 l 188 278 l 604 278 l 629 417 z m 581 139 l 719 139 l 743 278 l 604 278 z m 556 0 l 581 139 l 25 139 l 0 0 z "},"t":{"ha":556,"x_min":0,"x_max":0,"o":"m 164 139 l 303 139 l 376 556 l 515 556 l 539 694 l 400 694 l 449 972 l 310 972 l 261 694 l 122 694 l 99 556 l 238 556 z m 278 0 l 417 0 l 442 139 l 303 139 z "},"u":{"ha":833,"x_min":0,"x_max":0,"o":"m 25 139 l 164 139 l 261 694 l 122 694 z m 817 694 l 678 694 l 581 139 l 164 139 l 139 0 l 694 0 z "},"ú":{"ha":833,"x_min":0,"x_max":0,"o":"m 842 833 l 865 972 l 588 972 l 564 833 z m 25 139 l 164 139 l 261 694 l 122 694 z m 817 694 l 678 694 l 581 139 l 164 139 l 139 0 l 694 0 z "},"û":{"ha":833,"x_min":0,"x_max":0,"o":"m 703 833 l 726 972 l 310 972 l 286 833 z m 147 833 l 122 694 l 261 694 l 286 833 z m 842 833 l 703 833 l 678 694 l 817 694 z m 25 139 l 164 139 l 238 556 l 99 556 z m 793 556 l 654 556 l 581 139 l 164 139 l 139 0 l 694 0 z "},"ü":{"ha":833,"x_min":0,"x_max":0,"o":"m 425 833 l 449 972 l 310 972 l 286 833 z m 703 833 l 726 972 l 588 972 l 564 833 z m 25 139 l 164 139 l 261 694 l 122 694 z m 817 694 l 678 694 l 581 139 l 164 139 l 139 0 l 694 0 z "},"ù":{"ha":833,"x_min":0,"x_max":0,"o":"m 147 833 l 425 833 l 449 972 l 171 972 z m 25 139 l 164 139 l 261 694 l 122 694 z m 817 694 l 678 694 l 581 139 l 164 139 l 139 0 l 694 0 z "},"v":{"ha":833,"x_min":0,"x_max":0,"o":"m 49 278 l 188 278 l 261 694 l 122 694 z m 817 694 l 678 694 l 604 278 l 743 278 z m 326 278 l 188 278 l 164 139 l 303 139 z m 465 278 l 442 139 l 581 139 l 604 278 z m 303 139 l 278 0 l 417 0 l 442 139 z "},"w":{"ha":833,"x_min":0,"x_max":0,"o":"m 25 139 l 164 139 l 261 694 l 122 694 z m 817 694 l 678 694 l 581 139 l 442 139 l 490 417 l 351 417 l 303 139 l 164 139 l 139 0 l 694 0 z "},"x":{"ha":833,"x_min":0,"x_max":0,"o":"m 122 694 l 99 556 l 238 556 l 261 694 z m 678 694 l 654 556 l 793 556 l 817 694 z m 238 556 l 213 417 l 351 417 l 376 556 z m 515 556 l 490 417 l 629 417 l 654 556 z m 351 417 l 326 278 l 465 278 l 490 417 z m 188 278 l 164 139 l 303 139 l 326 278 z m 465 278 l 442 139 l 581 139 l 604 278 z m 25 139 l 0 0 l 139 0 l 164 139 z m 581 139 l 556 0 l 694 0 l 719 139 z "},"y":{"ha":833,"x_min":0,"x_max":0,"o":"m 49 278 l 188 278 l 261 694 l 122 694 z m 817 694 l 678 694 l 604 278 l 188 278 l 164 139 l 581 139 l 556 0 l 694 0 z m 531 -139 l 556 0 l 0 0 l -25 -139 z "},"ÿ":{"ha":833,"x_min":0,"x_max":0,"o":"m 425 833 l 449 972 l 310 972 l 286 833 z m 703 833 l 726 972 l 588 972 l 564 833 z m 49 278 l 188 278 l 261 694 l 122 694 z m 817 694 l 678 694 l 604 278 l 188 278 l 164 139 l 581 139 l 556 0 l 694 0 z m 531 -139 l 556 0 l 0 0 l -25 -139 z "},"z":{"ha":833,"x_min":0,"x_max":0,"o":"m 629 417 l 654 556 l 793 556 l 817 694 l 122 694 l 99 556 l 515 556 l 490 417 z m 465 278 l 490 417 l 351 417 l 326 278 z m 326 278 l 188 278 l 164 139 l 25 139 l 0 0 l 694 0 l 719 139 l 303 139 z "},"Ω":{"ha":833,"x_min":0,"x_max":0,"o":"m 703 833 l 726 972 l 310 972 l 286 833 z m 286 833 l 147 833 l 49 278 l 188 278 z m 842 833 l 703 833 l 604 278 l 743 278 z m 164 139 l 25 139 l 0 0 l 278 0 l 326 278 l 188 278 z m 604 278 l 465 278 l 417 0 l 694 0 l 719 139 l 581 139 z "},".":{"ha":278,"x_min":0,"x_max":0,"o":"m 188 278 l 49 278 l 0 0 l 139 0 z "},",":{"ha":278,"x_min":0,"x_max":0,"o":"m 188 278 l 49 278 l -25 -139 l 114 -139 z "},":":{"ha":278,"x_min":0,"x_max":0,"o":"m 286 833 l 147 833 l 99 556 l 238 556 z m 188 278 l 49 278 l 0 0 l 139 0 z "},";":{"ha":278,"x_min":0,"x_max":0,"o":"m 286 833 l 147 833 l 99 556 l 238 556 z m 188 278 l 49 278 l -25 -139 l 114 -139 z "},"!":{"ha":278,"x_min":0,"x_max":0,"o":"m 310 972 l 171 972 l 49 278 l 188 278 z m 25 139 l 0 0 l 139 0 l 164 139 z "},"¡":{"ha":278,"x_min":0,"x_max":0,"o":"m 286 833 l 147 833 l 122 694 l 261 694 z m 238 556 l 99 556 l 0 0 l 139 0 z "},"?":{"ha":833,"x_min":0,"x_max":0,"o":"m 703 833 l 726 972 l 310 972 l 286 833 z m 147 833 l 122 694 l 261 694 l 286 833 z m 842 833 l 703 833 l 654 556 l 793 556 z m 515 556 l 490 417 l 629 417 l 654 556 z m 351 417 l 326 278 l 465 278 l 490 417 z m 303 139 l 278 0 l 417 0 l 442 139 z "},"¿":{"ha":833,"x_min":0,"x_max":0,"o":"m 564 833 l 588 972 l 449 972 l 425 833 z m 515 556 l 539 694 l 400 694 l 376 556 z m 351 417 l 376 556 l 238 556 l 213 417 z m 164 139 l 213 417 l 74 417 l 25 139 z m 743 278 l 604 278 l 581 139 l 719 139 z m 556 0 l 581 139 l 164 139 l 139 0 z "},"·":{"ha":417,"x_min":0,"x_max":0,"o":"m 326 278 l 376 556 l 99 556 l 49 278 z "},"•":{"ha":417,"x_min":0,"x_max":0,"o":"m 326 278 l 376 556 l 99 556 l 49 278 z "},"*":{"ha":694,"x_min":0,"x_max":0,"o":"m 261 694 l 122 694 l 99 556 l 238 556 z m 654 556 l 678 694 l 539 694 l 515 556 z m 490 417 l 515 556 l 238 556 l 213 417 z m 74 417 l 49 278 l 188 278 l 213 417 z m 465 278 l 604 278 l 629 417 l 490 417 z "},"#":{"ha":833,"x_min":0,"x_max":0,"o":"m 654 556 l 793 556 l 817 694 l 678 694 l 726 972 l 588 972 l 539 694 l 400 694 l 449 972 l 310 972 l 261 694 l 122 694 l 99 556 l 238 556 l 213 417 l 74 417 l 49 278 l 188 278 l 139 0 l 278 0 l 326 278 l 465 278 l 417 0 l 556 0 l 604 278 l 743 278 l 768 417 l 629 417 z m 515 556 l 490 417 l 351 417 l 376 556 z "},"/":{"ha":833,"x_min":0,"x_max":0,"o":"m 865 972 l 726 972 l 703 833 l 842 833 z m 703 833 l 564 833 l 515 556 l 654 556 z m 376 556 l 351 417 l 490 417 l 515 556 z m 351 417 l 213 417 l 164 139 l 303 139 z m 25 139 l 0 0 l 139 0 l 164 139 z "},"\\":{"ha":833,"x_min":0,"x_max":0,"o":"m 310 972 l 171 972 l 147 833 l 286 833 z m 376 556 l 425 833 l 286 833 l 238 556 z m 515 556 l 376 556 l 351 417 l 490 417 z m 581 139 l 629 417 l 490 417 l 442 139 z m 719 139 l 581 139 l 556 0 l 694 0 z "},"(":{"ha":694,"x_min":0,"x_max":0,"o":"m 425 833 l 703 833 l 726 972 l 449 972 z m 400 694 l 425 833 l 286 833 l 261 694 z m 49 278 l 188 278 l 261 694 l 122 694 z m 164 139 l 303 139 l 326 278 l 188 278 z m 303 139 l 278 0 l 556 0 l 581 139 z "},")":{"ha":694,"x_min":0,"x_max":0,"o":"m 425 833 l 449 972 l 171 972 l 147 833 z m 564 833 l 425 833 l 400 694 l 539 694 z m 678 694 l 539 694 l 465 278 l 604 278 z m 326 278 l 303 139 l 442 139 l 465 278 z m 303 139 l 25 139 l 0 0 l 278 0 z "},"{":{"ha":694,"x_min":0,"x_max":0,"o":"m 425 833 l 703 833 l 726 972 l 449 972 z m 238 556 l 376 556 l 425 833 l 286 833 z m 238 556 l 99 556 l 74 417 l 213 417 z m 213 417 l 164 139 l 303 139 l 351 417 z m 303 139 l 278 0 l 556 0 l 581 139 z "},"}":{"ha":694,"x_min":0,"x_max":0,"o":"m 425 833 l 449 972 l 171 972 l 147 833 z m 515 556 l 564 833 l 425 833 l 376 556 z m 654 556 l 515 556 l 490 417 l 629 417 z m 490 417 l 351 417 l 303 139 l 442 139 z m 303 139 l 25 139 l 0 0 l 278 0 z "},"[":{"ha":556,"x_min":0,"x_max":0,"o":"m 442 139 l 164 139 l 286 833 l 564 833 l 588 972 l 171 972 l 0 0 l 417 0 z "},"]":{"ha":556,"x_min":0,"x_max":0,"o":"m 417 0 l 588 972 l 171 972 l 147 833 l 425 833 l 303 139 l 25 139 l 0 0 z "},"-":{"ha":833,"x_min":0,"x_max":0,"o":"m 768 417 l 793 556 l 99 556 l 74 417 z "},"­":{"ha":417,"x_min":0,"x_max":0,"o":"m 351 417 l 376 556 l 99 556 l 74 417 z "},"—":{"ha":833,"x_min":0,"x_max":0,"o":"m 768 417 l 793 556 l 99 556 l 74 417 z "},"_":{"ha":833,"x_min":0,"x_max":0,"o":"m 669 -139 l 694 0 l 0 0 l -25 -139 z "},"«":{"ha":833,"x_min":0,"x_max":0,"o":"m 400 694 l 376 556 l 515 556 l 539 694 z m 678 694 l 654 556 l 793 556 l 817 694 z m 238 556 l 213 417 l 351 417 l 376 556 z m 515 556 l 490 417 l 629 417 l 654 556 z m 74 417 l 49 278 l 188 278 l 213 417 z m 351 417 l 326 278 l 465 278 l 490 417 z m 188 278 l 164 139 l 303 139 l 326 278 z m 465 278 l 442 139 l 581 139 l 604 278 z m 303 139 l 278 0 l 417 0 l 442 139 z m 581 139 l 556 0 l 694 0 l 719 139 z "},"»":{"ha":833,"x_min":0,"x_max":0,"o":"m 122 694 l 99 556 l 238 556 l 261 694 z m 400 694 l 376 556 l 515 556 l 539 694 z m 238 556 l 213 417 l 351 417 l 376 556 z m 515 556 l 490 417 l 629 417 l 654 556 z m 351 417 l 326 278 l 465 278 l 490 417 z m 629 417 l 604 278 l 743 278 l 768 417 z m 188 278 l 164 139 l 303 139 l 326 278 z m 465 278 l 442 139 l 581 139 l 604 278 z m 25 139 l 0 0 l 139 0 l 164 139 z m 303 139 l 278 0 l 417 0 l 442 139 z "},"\"":{"ha":694,"x_min":0,"x_max":0,"o":"m 400 694 l 449 972 l 310 972 l 261 694 z m 726 972 l 588 972 l 539 694 l 678 694 z m 122 694 l 99 556 l 238 556 l 261 694 z m 400 694 l 376 556 l 515 556 l 539 694 z "},"'":{"ha":417,"x_min":0,"x_max":0,"o":"m 449 972 l 310 972 l 261 694 l 400 694 z m 122 694 l 99 556 l 238 556 l 261 694 z "}," ":{"ha":556,"x_min":0,"x_max":0,"o":""},"¢":{"ha":694,"x_min":0,"x_max":0,"o":"m 238 556 l 213 417 l 629 417 l 654 556 l 515 556 l 539 694 l 400 694 l 376 556 z m 213 417 l 74 417 l 49 278 l 188 278 z m 164 139 l 303 139 l 278 0 l 417 0 l 442 139 l 581 139 l 604 278 l 188 278 z "},"¤":{"ha":556,"x_min":0,"x_max":0,"o":"m 122 694 l 99 556 l 238 556 l 261 694 z m 400 694 l 376 556 l 515 556 l 539 694 z m 238 556 l 213 417 l 351 417 l 376 556 z m 74 417 l 49 278 l 188 278 l 213 417 z m 351 417 l 326 278 l 465 278 l 490 417 z "},"$":{"ha":833,"x_min":0,"x_max":0,"o":"m 286 833 l 261 694 l 817 694 l 842 833 l 564 833 l 588 972 l 449 972 l 425 833 z m 261 694 l 122 694 l 99 556 l 238 556 z m 238 556 l 213 417 l 629 417 l 654 556 z m 604 278 l 743 278 l 768 417 l 629 417 z m 581 139 l 604 278 l 49 278 l 25 139 l 303 139 l 278 0 l 417 0 l 442 139 z "},"ƒ":{"ha":833,"x_min":0,"x_max":0,"o":"m 726 972 l 588 972 l 564 833 l 703 833 z m 564 833 l 425 833 l 376 556 l 238 556 l 213 417 l 351 417 l 303 139 l 442 139 l 490 417 l 629 417 l 654 556 l 515 556 z m 842 833 l 703 833 l 678 694 l 817 694 z m 188 278 l 49 278 l 25 139 l 164 139 z m 164 139 l 139 0 l 278 0 l 303 139 z "},"£":{"ha":833,"x_min":0,"x_max":0,"o":"m 703 833 l 726 972 l 449 972 l 425 833 z m 425 833 l 286 833 l 238 556 l 99 556 l 74 417 l 213 417 l 164 139 l 25 139 l 0 0 l 694 0 l 719 139 l 303 139 l 351 417 l 629 417 l 654 556 l 376 556 z m 678 694 l 817 694 l 842 833 l 703 833 z "},"+":{"ha":833,"x_min":0,"x_max":0,"o":"m 768 417 l 793 556 l 515 556 l 564 833 l 425 833 l 376 556 l 99 556 l 74 417 l 351 417 l 303 139 l 442 139 l 490 417 z "},"÷":{"ha":833,"x_min":0,"x_max":0,"o":"m 539 694 l 564 833 l 425 833 l 400 694 z m 768 417 l 793 556 l 99 556 l 74 417 z m 326 278 l 303 139 l 442 139 l 465 278 z "},"=":{"ha":833,"x_min":0,"x_max":0,"o":"m 793 556 l 817 694 l 122 694 l 99 556 z m 719 139 l 743 278 l 49 278 l 25 139 z "},">":{"ha":694,"x_min":0,"x_max":0,"o":"m 171 972 l 147 833 l 286 833 l 310 972 z m 286 833 l 261 694 l 400 694 l 425 833 z m 400 694 l 376 556 l 515 556 l 539 694 z m 515 556 l 490 417 l 629 417 l 654 556 z m 351 417 l 326 278 l 465 278 l 490 417 z m 188 278 l 164 139 l 303 139 l 326 278 z m 25 139 l 0 0 l 139 0 l 164 139 z "},"<":{"ha":694,"x_min":0,"x_max":0,"o":"m 588 972 l 564 833 l 703 833 l 726 972 z m 425 833 l 400 694 l 539 694 l 564 833 z m 261 694 l 238 556 l 376 556 l 400 694 z m 99 556 l 74 417 l 213 417 l 238 556 z m 213 417 l 188 278 l 326 278 l 351 417 z m 326 278 l 303 139 l 442 139 l 465 278 z m 442 139 l 417 0 l 556 0 l 581 139 z "},"±":{"ha":833,"x_min":0,"x_max":0,"o":"m 793 556 l 817 694 l 539 694 l 588 972 l 449 972 l 400 694 l 122 694 l 99 556 l 376 556 l 326 278 l 465 278 l 515 556 z m 694 0 l 719 139 l 25 139 l 0 0 z "},"≈":{"ha":1111,"x_min":0,"x_max":0,"o":"m 1094 694 l 1119 833 l 842 833 l 817 694 l 678 694 l 703 833 l 286 833 l 261 694 l 122 694 l 99 556 l 376 556 l 400 694 l 539 694 l 515 556 l 932 556 l 956 694 z m 1046 417 l 768 417 l 743 278 l 604 278 l 629 417 l 213 417 l 188 278 l 49 278 l 25 139 l 303 139 l 326 278 l 465 278 l 442 139 l 858 139 l 882 278 l 1021 278 z "},"~":{"ha":972,"x_min":0,"x_max":0,"o":"m 564 833 l 588 972 l 310 972 l 286 833 z m 1004 972 l 865 972 l 842 833 l 981 833 z m 147 833 l 122 694 l 261 694 l 286 833 z m 842 833 l 564 833 l 539 694 l 817 694 z "},"¬":{"ha":833,"x_min":0,"x_max":0,"o":"m 719 139 l 768 417 l 74 417 l 49 278 l 604 278 l 581 139 z "},"∞":{"ha":1111,"x_min":0,"x_max":0,"o":"m 238 556 l 515 556 l 539 694 l 261 694 z m 654 556 l 932 556 l 956 694 l 678 694 z m 188 278 l 238 556 l 99 556 l 49 278 z m 604 278 l 654 556 l 515 556 l 465 278 z m 1071 556 l 932 556 l 882 278 l 1021 278 z m 465 278 l 188 278 l 164 139 l 442 139 z m 882 278 l 604 278 l 581 139 l 858 139 z "},"∑":{"ha":833,"x_min":0,"x_max":0,"o":"m 817 694 l 865 972 l 171 972 l 122 694 l 261 694 l 286 833 l 703 833 l 678 694 z m 238 556 l 376 556 l 400 694 l 261 694 z m 351 417 l 490 417 l 515 556 l 376 556 z m 213 417 l 188 278 l 326 278 l 351 417 z m 188 278 l 49 278 l 0 0 l 694 0 l 743 278 l 604 278 l 581 139 l 164 139 z "},"√":{"ha":1250,"x_min":0,"x_max":0,"o":"m 1258 833 l 1282 972 l 726 972 l 604 278 l 465 278 l 515 556 l 99 556 l 74 417 l 213 417 l 188 278 l 326 278 l 303 139 l 442 139 l 417 0 l 833 0 l 981 833 z "},"%":{"ha":833,"x_min":0,"x_max":0,"o":"m 122 694 l 261 694 l 310 972 l 171 972 z m 865 972 l 726 972 l 703 833 l 842 833 z m 703 833 l 564 833 l 515 556 l 654 556 z m 376 556 l 351 417 l 490 417 l 515 556 z m 351 417 l 213 417 l 164 139 l 303 139 z m 743 278 l 604 278 l 556 0 l 694 0 z m 25 139 l 0 0 l 139 0 l 164 139 z "},"☺":{"ha":1250,"x_min":0,"x_max":0,"o":"m 310 972 l 286 833 l 1119 833 l 1143 972 z m 0 0 l 139 0 l 286 833 l 147 833 z m 1258 833 l 1119 833 l 972 0 l 1111 0 z m 515 556 l 539 694 l 400 694 l 376 556 z m 817 694 l 793 556 l 932 556 l 956 694 z m 882 278 l 907 417 l 351 417 l 326 278 l 465 278 l 442 139 l 719 139 l 743 278 z m 947 -139 l 972 0 l 139 0 l 114 -139 z "},"☻":{"ha":1250,"x_min":0,"x_max":0,"o":"m 1258 833 l 1119 833 l 1143 972 l 310 972 l 286 833 l 147 833 l 0 0 l 139 0 l 114 -139 l 947 -139 l 972 0 l 1111 0 z m 376 556 l 400 694 l 539 694 l 515 556 z m 956 694 l 932 556 l 793 556 l 817 694 z m 907 417 l 882 278 l 743 278 l 719 139 l 442 139 l 465 278 l 326 278 l 351 417 z "},"☼":{"ha":1250,"x_min":0,"x_max":0,"o":"m 956 694 l 817 694 l 865 972 l 588 972 l 539 694 l 400 694 l 376 556 l 99 556 l 49 278 l 326 278 l 303 139 l 442 139 l 392 -139 l 669 -139 l 719 139 l 858 139 l 882 278 l 1160 278 l 1210 556 l 932 556 z m 310 972 l 171 972 l 147 833 l 286 833 z m 1258 833 l 1282 972 l 1143 972 l 1119 833 z m 425 833 l 286 833 l 261 694 l 400 694 z m 1094 694 l 1119 833 l 981 833 l 956 694 z m 515 556 l 793 556 l 743 278 l 465 278 z m 164 139 l 139 0 l 278 0 l 303 139 z m 833 0 l 972 0 l 997 139 l 858 139 z m 0 0 l -25 -139 l 114 -139 l 139 0 z m 947 -139 l 1086 -139 l 1111 0 l 972 0 z "},"♀":{"ha":833,"x_min":0,"x_max":0,"o":"m 310 972 l 286 833 l 703 833 l 726 972 z m 74 417 l 213 417 l 286 833 l 147 833 z m 842 833 l 703 833 l 629 417 l 768 417 z m 604 278 l 629 417 l 213 417 l 188 278 l 326 278 l 303 139 l 164 139 l 139 0 l 278 0 l 253 -139 l 392 -139 l 417 0 l 556 0 l 581 139 l 442 139 l 465 278 z "},"♂":{"ha":1111,"x_min":0,"x_max":0,"o":"m 1071 556 l 1143 972 l 726 972 l 703 833 l 842 833 l 817 694 l 956 694 l 932 556 z m 678 694 l 654 556 l 793 556 l 817 694 z m 629 417 l 654 556 l 238 556 l 213 417 z m 0 0 l 139 0 l 213 417 l 74 417 z m 768 417 l 629 417 l 556 0 l 694 0 z m 531 -139 l 556 0 l 139 0 l 114 -139 z "},"♠":{"ha":1111,"x_min":0,"x_max":0,"o":"m 1046 417 l 907 417 l 932 556 l 793 556 l 817 694 l 678 694 l 726 972 l 588 972 l 539 694 l 400 694 l 376 556 l 238 556 l 213 417 l 74 417 l 49 278 l 188 278 l 164 139 l 303 139 l 278 0 l 139 0 l 114 -139 l 808 -139 l 833 0 l 694 0 l 719 139 l 858 139 l 882 278 l 1021 278 z "},"♣":{"ha":1111,"x_min":0,"x_max":0,"o":"m 1021 278 l 1071 556 l 793 556 l 817 694 l 956 694 l 981 833 l 842 833 l 865 972 l 449 972 l 425 833 l 286 833 l 261 694 l 400 694 l 376 556 l 99 556 l 49 278 l 188 278 l 164 139 l 303 139 l 278 0 l 139 0 l 114 -139 l 808 -139 l 833 0 l 694 0 l 719 139 l 858 139 l 882 278 z "},"♥":{"ha":1111,"x_min":0,"x_max":0,"o":"m 1119 833 l 981 833 l 1004 972 l 726 972 l 703 833 l 564 833 l 588 972 l 310 972 l 286 833 l 147 833 l 74 417 l 213 417 l 188 278 l 326 278 l 303 139 l 442 139 l 417 0 l 556 0 l 581 139 l 719 139 l 743 278 l 882 278 l 907 417 l 1046 417 z "},"♦":{"ha":1111,"x_min":0,"x_max":0,"o":"m 1071 556 l 932 556 l 956 694 l 817 694 l 842 833 l 703 833 l 726 972 l 588 972 l 564 833 l 425 833 l 400 694 l 261 694 l 238 556 l 99 556 l 74 417 l 213 417 l 188 278 l 326 278 l 303 139 l 442 139 l 417 0 l 556 0 l 581 139 l 719 139 l 743 278 l 882 278 l 907 417 l 1046 417 z "},"@":{"ha":972,"x_min":0,"x_max":0,"o":"m 842 833 l 865 972 l 310 972 l 286 833 z m 286 833 l 147 833 l 25 139 l 164 139 z m 981 833 l 842 833 l 768 417 l 629 417 l 678 694 l 400 694 l 326 278 l 882 278 z m 164 139 l 139 0 l 694 0 l 719 139 z "},"&":{"ha":833,"x_min":0,"x_max":0,"o":"m 564 833 l 588 972 l 449 972 l 425 833 z m 425 833 l 286 833 l 261 694 l 400 694 z m 539 694 l 678 694 l 703 833 l 564 833 z m 581 139 l 629 417 l 490 417 l 539 694 l 400 694 l 376 556 l 238 556 l 213 417 l 351 417 l 326 278 l 465 278 l 442 139 z m 768 417 l 793 556 l 654 556 l 629 417 z m 164 139 l 213 417 l 74 417 l 25 139 z m 442 139 l 164 139 l 139 0 l 417 0 z m 556 0 l 694 0 l 719 139 l 581 139 z "},"¶":{"ha":972,"x_min":0,"x_max":0,"o":"m 833 0 l 1004 972 l 310 972 l 286 833 l 564 833 l 515 556 l 238 556 l 213 417 l 490 417 l 417 0 l 556 0 l 703 833 l 842 833 l 694 0 z m 238 556 l 286 833 l 147 833 l 99 556 z "},"§":{"ha":833,"x_min":0,"x_max":0,"o":"m 310 972 l 286 833 l 842 833 l 865 972 z m 286 833 l 147 833 l 122 694 l 261 694 z m 261 694 l 238 556 l 654 556 l 678 694 z m 238 556 l 99 556 l 74 417 l 213 417 z m 629 417 l 768 417 l 793 556 l 654 556 z m 604 278 l 629 417 l 213 417 l 188 278 z m 581 139 l 719 139 l 743 278 l 604 278 z m 556 0 l 581 139 l 25 139 l 0 0 z "},"®":{"ha":972,"x_min":0,"x_max":0,"o":"m 238 556 l 376 556 l 326 278 l 465 278 l 490 417 l 629 417 l 654 556 l 793 556 l 817 694 l 261 694 z m 581 139 l 604 278 l 465 278 l 442 139 l 303 139 l 326 278 l 188 278 l 238 556 l 99 556 l 25 139 l 164 139 l 139 0 l 694 0 l 719 139 z m 932 556 l 793 556 l 719 139 l 858 139 z "},"|":{"ha":278,"x_min":0,"x_max":0,"o":"m 310 972 l 171 972 l 99 556 l 238 556 z m 213 417 l 74 417 l 0 0 l 139 0 z "},"^":{"ha":833,"x_min":0,"x_max":0,"o":"m 449 972 l 425 833 l 564 833 l 588 972 z m 286 833 l 261 694 l 400 694 l 425 833 z m 564 833 l 539 694 l 678 694 l 703 833 z m 122 694 l 99 556 l 238 556 l 261 694 z m 678 694 l 654 556 l 793 556 l 817 694 z "},"⌂":{"ha":833,"x_min":0,"x_max":0,"o":"m 515 556 l 539 694 l 400 694 l 376 556 z m 351 417 l 376 556 l 238 556 l 213 417 z m 490 417 l 629 417 l 654 556 l 515 556 z m 768 417 l 629 417 l 581 139 l 164 139 l 213 417 l 74 417 l 0 0 l 694 0 z "},"¸":{"ha":556,"x_min":0,"x_max":0,"o":"m 417 0 l 278 0 l 253 -139 l 392 -139 z m 253 -139 l -25 -139 l -49 -278 l 229 -278 z "}}}
